PathFileType	4	(X/Y/Z)	64_1_47_p1_0-328.trc
DataRate	CameraRate	NumFrames	NumMarkers	Units	OrigDataRate	OrigDataStartFrame	OrigNumFrames
41.0	41.0	6	27	m	41.0	41	329
Frame#	Time	RHip			RKnee			RAnkle			RBigToe			RSmallToe			RHeel			LHip			LKnee			LAnkle			LBigToe			LSmallToe			LHeel			Neck			Head			Nose			RShoulder			RElbow			RWrist			RThumb			RIndex			RPinky			LShoulder			LElbow			LWrist			LThumb			LIndex			LPinky			
		X1	Y1	Z1	X2	Y2	Z2	X3	Y3	Z3	X4	Y4	Z4	X5	Y5	Z5	X6	Y6	Z6	X7	Y7	Z7	X8	Y8	Z8	X9	Y9	Z9	X10	Y10	Z10	X11	Y11	Z11	X12	Y12	Z12	X13	Y13	Z13	X14	Y14	Z14	X15	Y15	Z15	X16	Y16	Z16	X17	Y17	Z17	X18	Y18	Z18	X19	Y19	Z19	X20	Y20	Z20	X21	Y21	Z21	X22	Y22	Z22	X23	Y23	Z23	X24	Y24	Z24	X25	Y25	Z25	X26	Y26	Z26	X27	Y27	Z27	
41	1.0	0.3381288914067683	0.7346103976591516	0.5423391778647898	0.2913559501824247	1.0060822490814445	0.9086038368461603	0.251767519998637	1.2602717053928736	1.263050283062462	0.2770863576597771	1.0705852432567364	1.4072565784081226	0.33391796547753366	1.11967639697438	1.3895184075533302	0.19861910617592132	1.3331644120472639	1.2872823881703823	0.1297971756170826	0.6658135711038229	0.5743397226134325	0.08362020922087873	0.9268682790405954	0.9345725848363663	0.06770766684665848	1.195276792510925	1.2881559055735612	0.12479343876993548	1.0148352144850201	1.4149757391509759	0.056227231773181396	1.076184387901469	1.4076194287436605	0.06153138880384817	1.3011549398158628	1.3009721575702924	0.29261135069388283	0.3673698663806924	0.022135863108021153	0.3542039289069489	0.19844803150755622	-0.16412840569577136	0.35013463333858635	0.2095980106391743	-0.01223845035826353	0.42689745091341613	0.5076709122524249	0.06807671267628554	0.43647148045143835	0.6381747102733528	0.3335531154774915	0.3821702354295727	0.597689461505447	0.6027104816630198	0.2614303053709661	0.5640177703027854	0.6885807713943982	0.26309689483336635	0.5666314466724639	0.6973355219947631	0.30654962907289185	0.6413888795195604	0.7144767096175312	0.11100317224827858	0.39153909394534353	0.0987028796187209	0.10261708815708945	0.45219372495255294	0.3945683828878286	0.25669593091942555	0.51496372592846	0.6153245621138862	0.29381278330729194	0.5803098877194568	0.6875762962062054	0.2939640055920551	0.5932032505566569	0.7154879510488057	0.27508009724537963	0.594169579435104	0.7037708099273455
42	1.024390243902439	0.3380903885189415	0.7345833602956121	0.5423619716366795	0.29132148432456273	1.0061224958542978	0.9084820846534694	0.2379897950212365	1.274301055039053	1.264177756200136	0.2766106051687198	1.0717070879097692	1.4073272424817285	0.3332610742412433	1.1214036255073916	1.3893824643946298	0.19849128406990418	1.3329428572335513	1.2868663970438836	0.12979093099801414	0.665706640853586	0.5743904487632026	0.08361753094691465	0.9267377181941983	0.9345856537713793	0.06891806900818225	1.1932286732148367	1.2840617504534864	0.12482064254797484	1.014938434857958	1.4153443830010461	0.05608940871586935	1.0766152686265045	1.4079983335870268	0.06147952185342793	1.3011234916940388	1.301101685145485	0.29247758529238466	0.36872864932253274	0.02506767265184692	0.3542766191841101	0.1984696909081686	-0.16409947019846624	0.35017409200437416	0.20951252483030214	-0.012185516838338186	0.42672086964099215	0.49638684071959777	0.07335381397516245	0.43638547018310203	0.638329385396563	0.33361580713796335	0.3821662907194856	0.5974267389110219	0.602809454252662	0.2615764820903163	0.5641901001127001	0.6888182892491398	0.2631234706369019	0.5669269368630349	0.6973184761180334	0.3144789094117788	0.6254674221210568	0.7144157040969602	0.11097707869670584	0.39165899262855886	0.09866604759181233	0.10262129718450912	0.45213029679183986	0.3946865258858427	0.2569241767574999	0.5147598108834142	0.6153893614451154	0.3026102693052747	0.5565067281518729	0.6924060356913643	0.3057758000078309	0.5829038701053783	0.7167440287106319	0.2751891356340161	0.6057320238559505	0.7008375616324084
43	1.048780487804878	0.33848411102468734	0.7219546451882259	0.5458956368948134	0.29133092515153647	1.006118461226116	0.9083107030960865	0.24771850942221427	1.2569822377865918	1.2636226845399188	0.27669272389110455	1.0865699004082476	1.4113889077636335	0.3333538977467968	1.1206802349622453	1.389423124524552	0.19802893844920633	1.3504012751608616	1.2864894366071498	0.12978520814554684	0.6655539310259831	0.5744189536621539	0.08360732834313445	0.9266849544472822	0.9345553648262725	0.06889938247719621	1.1931930723720419	1.284123757140565	0.12473349328962945	1.0150739463349245	1.4152107094107016	0.05607085114573265	1.0766196254790095	1.407888602422967	0.06147612845020747	1.3011518714995571	1.301307789043281	0.2924720462475241	0.368746972831931	0.02504813004298755	0.35354683234367035	0.20902141706097302	-0.1705315969766993	0.35017518238434503	0.20952442802793603	-0.01218291365436307	0.4193801980264641	0.506966842849955	0.06860400196147982	0.43635017722228164	0.6383260265755922	0.33372580173909316	0.3821775274200487	0.5973950935555714	0.6027810090227528	0.26162494840261746	0.5642564048963596	0.6889088654309007	0.2631192832798335	0.5670275574120964	0.6972808018707513	0.3069090540782895	0.62521385893004	0.7103678568455424	0.11095909808329125	0.3916814018847537	0.0986353455845115	0.10292382383538358	0.44884604633475966	0.3916651646429161	0.25695456145444906	0.5116350870409128	0.6125641634270479	0.3023389527793501	0.568666607327951	0.6896056211916439	0.30547865236718186	0.5840307805164217	0.7166834645580656	0.2747629710206471	0.5944565936875664	0.7037551849234276
44	1.0731707317073171	0.33856374077998663	0.7218559528499874	0.5458399677068857	0.29126881812652805	1.006028418163507	0.9086975696682378	0.2517213245084638	1.2601608946689964	1.2628544410366471	0.28459594159149665	1.059325643056207	1.4142518052263164	0.3419513381480661	1.1047440952206455	1.3880950361899094	0.19860356081300415	1.3326230829264298	1.2868046619429088	0.13323669029920573	0.6682476479680115	0.5733991410826671	0.08368860800469548	0.92670184421055	0.9346241788372385	0.0676691219747773	1.1949686414483789	1.288363046349736	0.12483023807488593	1.0148771085866883	1.415532480717551	0.056042467924322714	1.0765722528081036	1.4081037817646842	0.06301417871021896	1.2809599754984826	1.298513211201595	0.2924473393557164	0.3687689943529143	0.025014319263049107	0.35352675539409717	0.20908559359112575	-0.17054950801806792	0.3502055877846573	0.20958888065221196	-0.012215970416421744	0.41937565761203777	0.5069614110678606	0.06858377107708014	0.4363946277765613	0.6383009902523257	0.3334954257934055	0.3819904017633601	0.5945100066755408	0.600073748897432	0.26144903854482776	0.5640617677965245	0.6886225370235333	0.2630580858841188	0.566859907688323	0.6972674158875805	0.30762555939494995	0.6263806396369337	0.714753719680504	0.11094030592999501	0.39167794295065356	0.09865153625756236	0.10259563762243584	0.45205481232013256	0.39465556652370415	0.25678896412271757	0.5148517848845223	0.615421302124021	0.30210649189627364	0.5692762027001399	0.6896486980109425	0.29752822991049965	0.5958892080048583	0.714753386525277	0.27499940718602045	0.5944616246933035	0.7038716418414379
45	1.0975609756097562	0.33825107502036994	0.7343315568314317	0.5423363466844702	0.2917075094924798	1.0070814067534937	0.9122299948042902	0.2517647056579104	1.2598774826182275	1.2631232180611174	0.28507886749426764	1.0562338221436347	1.4061733006547954	0.341732702730985	1.1049079855242863	1.3880903701811442	0.19719167100447196	1.335295158076251	1.2923374809370844	0.14237124530027792	0.6562393269156016	0.5760725567442022	0.08372945026123266	0.9267183282847532	0.934664085553691	0.0697647826228174	1.1935295136297241	1.2881537236147398	0.12486190880283164	1.0148769910078426	1.4154219856262287	0.056102720283773555	1.07641430936792	1.4080699595830852	0.06196435681046377	1.297804489309637	1.303792893448827	0.2926416419368143	0.36736715360909616	0.022052202361336856	0.35357036840899553	0.20911602262132437	-0.17055279230847692	0.3501689993084382	0.2096474899228229	-0.012303776713885063	0.4267317654398527	0.49635404458016646	0.07336083819179942	0.43640467562367347	0.6383056098365494	0.33352924392590255	0.38250156142488617	0.5988901023861007	0.6063121297669817	0.2613082166261249	0.5609731409955584	0.6853427572119938	0.2623261532490476	0.5681192729784879	0.7002651508879231	0.3078087882898612	0.6293299278700782	0.7176871245825887	0.11097348189451361	0.39171881122706576	0.09861225533817702	0.10297833056377759	0.44886123486214585	0.39161825994708943	0.2568665266532879	0.5118246167030807	0.6125110366980226	0.30227451770259567	0.557928446670532	0.6924643977776929	0.29740246297502376	0.5957752083387994	0.7147145937410995	0.2773687047308035	0.5966021641068278	0.7031247159093504
46	1.1219512195121952	0.33820155704700455	0.7344443969063188	0.542162463452968	0.29114215687779615	1.0063095158393445	0.9089829800538424	0.24805640277956476	1.2559968513109725	1.2638341165710745	0.28452313719196015	1.059748927127955	1.4143197744220848	0.3419364912261148	1.1049130538904584	1.388097412538865	0.1972782409217033	1.3351915707447497	1.2920496880374621	0.1421001161785489	0.6553083801885718	0.5725057734850119	0.08652569254937661	0.930490671425703	0.9337197696585435	0.06753587846837943	1.1955651070839723	1.288521832951663	0.12487116067003229	1.0148194506701251	1.4158342909499033	0.05605580503598009	1.0767808566363033	1.40817374957507	0.06132277419760582	1.2972350107723176	1.2997081140224336	0.29263540048634445	0.3674002616370357	0.02205948502844348	0.3543131541984028	0.1969372091009544	-0.16717914958011262	0.35035196276081443	0.20733435553255158	-0.014695523842713018	0.4267330164364885	0.49638932946241604	0.07335761258457019	0.4405347232312945	0.6393761122347709	0.3328522879389202	0.3824707037814839	0.5991273079888803	0.6062859000314281	0.2615615062244649	0.5643427809576828	0.6890702849518445	0.262427632255035	0.5682796245239599	0.7005194971176522	0.3074056038981239	0.6329832569233284	0.7197841373690199	0.1109921092949958	0.3916420971447948	0.0986473197646865	0.10266687765632893	0.45229080811515626	0.39460903938882264	0.25729465648581495	0.5003221492905967	0.6156910177889787	0.3023872804006489	0.5578830439561063	0.6925499081513399	0.2982081548914638	0.5862343962611506	0.7175674242132289	0.27522712704650737	0.5951385075609598	0.7067976211684148
